<?xml version="1.0" encoding="UTF-8" standalone="no"?>
<svg
   xmlns:dc="http://purl.org/dc/elements/1.1/"
   xmlns:cc="http://creativecommons.org/ns#"
   xmlns:rdf="http://www.w3.org/1999/02/22-rdf-syntax-ns#"
   xmlns:svg="http://www.w3.org/2000/svg"
   xmlns="http://www.w3.org/2000/svg"
   viewBox="0 0 48 48"
   height="48"
   width="48"
   id="svg3713"
   version="1.1">
  <metadata
     id="metadata3719">
    <rdf:RDF>
      <cc:Work
         rdf:about="">
        <dc:format>image/svg+xml</dc:format>
        <dc:type
           rdf:resource="http://purl.org/dc/dcmitype/StillImage" />
        <dc:title></dc:title>
      </cc:Work>
    </rdf:RDF>
  </metadata>
  <defs
     id="defs3717" />
  <path
     style="fill:#fefefe;stroke-width:1.33333337"
     d="M 14.854363,50.412484 14.586057,46.081622 14.540942,32.967117 V 20.522673 h 12.048283 12.048282 l -0.381616,13 -0.249033,12.425476 -11.523741,-0.05908 -11.89706,0.192549 z M 21.207609,33.18934 v -10 h -1.333334 -1.333333 v 10 10 h 1.333333 1.333334 z m 6.666666,0 v -10 h -1.333333 -1.333333 v 10 10 h 1.333333 1.333333 z m 6.666667,0 v -10 h -1.333333 -1.333334 v 10 10 h 1.333334 1.333333 z M 13.207609,17.81416 v -1.375179 l 2.333333,-0.722151 2.333333,-0.722151 2.315242,-1.236003 2.315241,-1.236003 h 4.036184 4.036184 l 2.315241,1.236003 2.315242,1.236003 2.333333,0.722151 2.333333,0.722151 v 1.375179 1.37518 H 26.540942 13.207609 Z"
     id="path3733" />
  <path
     style="fill:#e2da09;stroke-width:1.33333337"
     d="M -1e-7,24 V 0 H 24 48 V 24 48 H 24 -1e-7 Z m 35.7149491,2.333333 0.381616,-13 H 24.048283 12 v 12.444444 12.444446 l 0.05454,1.512945 1.159392,0.01034 11.391158,-0.02931 10.728245,-0.02931 z M 16,26 V 16 h 1.333333 1.333334 V 26 36 H 17.333333 16 Z m 6.666667,0 V 16 H 24 25.333333 V 26 36 H 24 22.666667 Z m 6.666666,0 V 16 H 30.666667 32 v 10 10 h -1.333333 -1.333334 z m 8,-15.37518 V 9.2496412 L 35,8.5274902 32.666667,7.8053392 30.351425,6.5693362 28.036184,5.3333332 H 24 19.963816 L 17.648575,6.5693362 15.333333,7.8053392 13,8.5274902 10.666667,9.2496412 V 10.62482 12 H 24 37.333333 Z"
     id="path3731" />
</svg>
